<svg width="32" height="32" viewBox="0 0 32 32" fill="none" xmlns="http://www.w3.org/2000/svg">
<path d="M16.294 14.1092C17.2682 14.1092 18.0579 14.8989 18.0579 15.8731C18.0579 16.8473 17.2682 17.637 16.294 17.637C15.3198 17.637 14.5301 16.8473 14.5301 15.8731C14.5301 14.8989 15.3198 14.1092 16.294 14.1092Z" fill="black"/>
<path fill-rule="evenodd" clip-rule="evenodd" d="M15.7106 0C17.9119 2.19181e-05 19.7368 0.658764 21.1856 1.97581C22.6343 3.3117 23.3589 5.06137 23.3589 7.22512C23.3589 7.78727 23.8494 8.2571 24.4111 8.23612C24.5308 8.23165 24.6521 8.22939 24.7749 8.22939C26.9386 8.22939 28.6883 8.95397 30.0242 10.4027C31.3412 11.8515 32 13.6764 32 15.8777C32 18.0791 31.3226 19.9045 29.9679 21.3532C28.6132 22.8019 26.8163 23.526 24.5774 23.526C24.2228 23.526 23.9328 23.8251 23.943 24.1796C23.9456 24.2696 23.9469 24.3604 23.9469 24.4522C23.9469 26.6911 23.2228 28.4881 21.7741 29.8427C20.3253 31.1974 18.5 31.8748 16.2986 31.8748C14.0972 31.8748 12.2724 31.2161 10.8236 29.899C9.37484 28.5631 8.65028 26.8135 8.65028 24.6497C8.65028 24.0386 8.12484 23.5199 7.51379 23.5256C7.4835 23.5259 7.45312 23.526 7.42265 23.526C5.1837 23.526 3.38677 22.8019 2.03208 21.3532C0.677382 19.9045 0 18.0791 0 15.8777C2.19182e-05 13.6764 0.658764 11.8515 1.97581 10.4027C3.31169 8.95397 5.06138 8.22939 7.22512 8.22939C7.23472 8.22939 7.24432 8.22941 7.2539 8.22943C7.69512 8.23075 8.0623 7.86386 8.0623 7.42265C8.0623 5.18368 8.78636 3.38677 10.2351 2.03208C11.6838 0.677382 13.5092 0 15.7106 0ZM15.7106 3.89478C14.2995 3.89478 13.18 4.18659 12.3521 4.76986C11.5431 5.35313 11.1383 6.20932 11.1383 7.33824C11.1383 7.99135 11.2629 8.53711 11.512 8.97553C12.234 10.2464 13.6112 11.3093 13.6355 12.7707C13.6355 13.1931 13.293 13.5355 12.8706 13.5355H11.6637C10.7238 13.5355 9.97778 12.7935 9.33327 12.1094C9.27359 12.046 9.21053 11.9851 9.14409 11.9266C8.67374 11.5128 8.0906 11.306 7.39451 11.3059C6.26564 11.3059 5.40008 11.7102 4.79799 12.5192C4.19592 13.3283 3.89479 14.4478 3.89478 15.8777C3.89478 17.2888 4.18658 18.4083 4.76986 19.2362C5.35309 20.0452 6.20887 20.45 7.33766 20.45C8.38468 20.45 9.15595 20.13 9.65137 19.4901C10.2248 18.7493 10.9336 17.9948 11.8703 17.9948H13.9386C13.9405 17.9948 13.9419 17.9964 13.9416 17.9982C13.9412 18.0002 13.9429 18.0019 13.945 18.0016C13.9463 18.0014 13.9477 18.0012 13.949 18.001C13.9529 18.0005 13.9564 18.0035 13.9564 18.0074V20.2553C13.9564 21.1695 13.2381 21.8954 12.5626 22.5115C12.4876 22.58 12.4159 22.6531 12.3475 22.7307C11.9336 23.2011 11.7268 23.7842 11.7268 24.4803C11.7268 25.6092 12.1311 26.4747 12.9401 27.0768C13.7491 27.6789 14.8687 27.98 16.2986 27.98C17.7097 27.98 18.8292 27.6882 19.6571 27.105C20.4661 26.5217 20.8709 25.6655 20.8709 24.5366C20.8709 23.6428 20.6376 22.9501 20.1712 22.4584C19.3873 21.632 18.4156 20.7926 18.4156 19.6536V18.5035C18.4156 18.2225 18.6434 17.9948 18.9244 17.9948C20.5557 17.9948 21.7915 19.5844 23.2982 20.2099C23.6839 20.37 24.1386 20.45 24.6623 20.45C25.7911 20.45 26.6469 20.0452 27.2301 19.2362C27.8134 18.4083 28.1052 17.2888 28.1052 15.8777C28.1052 14.4478 27.8041 13.3283 27.202 12.5192C26.5999 11.7102 25.7344 11.3059 24.6055 11.3059C23.9094 11.306 23.3263 11.5128 22.8559 11.9266C22.0355 12.6486 21.166 13.5355 20.0732 13.5355H19.3292C18.6245 13.5276 18.0571 12.9546 18.056 12.2498L18.0551 11.6246C18.0537 10.7078 18.774 9.979 19.4502 9.35992C19.5239 9.29245 19.5944 9.2205 19.6617 9.14409C20.0755 8.67374 20.2823 8.0906 20.2824 7.39451C20.2824 6.26563 19.8781 5.40008 19.0691 4.79799C18.26 4.19592 17.1405 3.89479 15.7106 3.89478Z" fill="black"/>
</svg>
